<mxfile host="app.diagrams.net" modified="2024-01-08T15:35:10.417Z" agent="Mozilla/5.0 (X11; Linux x86_64) AppleWebKit/537.36 (KHTML, like Gecko) Chrome/120.0.0.0 Safari/537.36" version="22.1.17" etag="24e9-u_uMtBkNFPMrKBR" type="github">
  <diagram name="Page-1" id="lJwbFgPx7jabmn285uID">
    <mxGraphModel>
      <root>
        <mxCell id="0" />
        <mxCell id="1" parent="0" />
      </root>
    </mxGraphModel>
  </diagram>
</mxfile>
